HIERARCHY
ROOT Hips
{
  OFFSET 5.72205e-005 65.662 3.42586
  CHANNELS 6 Xposition Yposition Zposition Zrotation Xrotation Yrotation
  JOINT Chest
  {
    OFFSET 0 8.7983 -4.7612
    CHANNELS 6 Xposition Yposition Zposition Zrotation Xrotation Yrotation
    JOINT Chest2
    {
      OFFSET 0 8.0291 0.4195
      CHANNELS 6 Xposition Yposition Zposition Zrotation Xrotation Yrotation
      JOINT Chest3
      {
        OFFSET 0 9.9351 -2.2114
        CHANNELS 6 Xposition Yposition Zposition Zrotation Xrotation Yrotation
        JOINT Neck
        {
          OFFSET 0 22.3885 -0.4656
          CHANNELS 6 Xposition Yposition Zposition Zrotation Xrotation Yrotation
          JOINT Head
          {
            OFFSET -0.0001 12.643 3.4389
            CHANNELS 6 Xposition Yposition Zposition Zrotation Xrotation Yrotation
            End Site
            {
              OFFSET 0.0001 17.6655 0.5274
            }
          }
        }
        JOINT LeftCollar
        {
          OFFSET 2.2603 21.606 7.4023
          CHANNELS 6 Xposition Yposition Zposition Zrotation Xrotation Yrotation
          JOINT LeftShoulder
          {
            OFFSET 13.5163 -1.1332 -5.0146
            CHANNELS 6 Xposition Yposition Zposition Zrotation Xrotation Yrotation
            JOINT LeftElbow
            {
              OFFSET -0.0995 -28.05 -0.2431
              CHANNELS 6 Xposition Yposition Zposition Zrotation Xrotation Yrotation
              JOINT LeftWrist
              {
                OFFSET 0.0679 -23.3996 -0.1402
                CHANNELS 6 Xposition Yposition Zposition Zrotation Xrotation Yrotation
                JOINT LeftFinger1
                {
                  OFFSET 0.7932 -9.069 2.5189
                  CHANNELS 6 Xposition Yposition Zposition Zrotation Xrotation Yrotation
                  JOINT LeftFinger11
                  {
                    OFFSET -0.8272 -3.3923 0.5977
                    CHANNELS 6 Xposition Yposition Zposition Zrotation Xrotation Yrotation
                    JOINT LeftFinger12
                    {
                      OFFSET -0.5649 -2.3158 0.4082
                      CHANNELS 6 Xposition Yposition Zposition Zrotation Xrotation Yrotation
                      End Site
                      {
                        OFFSET -0.4919 -1.6479 0.2673
                      }
                    }
                  }
                }
                JOINT LeftFinger2
                {
                  OFFSET 0.9159 -9.2044 0.2193
                  CHANNELS 6 Xposition Yposition Zposition Zrotation Xrotation Yrotation
                  JOINT LeftFinger21
                  {
                    OFFSET 0.0117 -4.1944 -0.0248
                    CHANNELS 6 Xposition Yposition Zposition Zrotation Xrotation Yrotation
                    JOINT LeftFinger22
                    {
                      OFFSET 0.0071 -2.3249 -0.0142
                      CHANNELS 6 Xposition Yposition Zposition Zrotation Xrotation Yrotation
                      End Site
                      {
                        OFFSET -0.1475 -2.0882 0.0028
                      }
                    }
                  }
                }
                JOINT LeftFinger3
                {
                  OFFSET 0.6113 -8.7231 -2.0637
                  CHANNELS 6 Xposition Yposition Zposition Zrotation Xrotation Yrotation
                  JOINT LeftFinger31
                  {
                    OFFSET -0.1927 -3.8059 -0.2383
                    CHANNELS 6 Xposition Yposition Zposition Zrotation Xrotation Yrotation
                    JOINT LeftFinger32
                    {
                      OFFSET -0.1091 -2.1688 -0.1362
                      CHANNELS 6 Xposition Yposition Zposition Zrotation Xrotation Yrotation
                      End Site
                      {
                        OFFSET -0.2358 -1.9176 -0.0906
                      }
                    }
                  }
                }
                JOINT LeftFinger4
                {
                  OFFSET -0.6151 -8.0947 -3.5641
                  CHANNELS 6 Xposition Yposition Zposition Zrotation Xrotation Yrotation
                  JOINT LeftFinger41
                  {
                    OFFSET -0.4882 -2.341 -0.6462
                    CHANNELS 6 Xposition Yposition Zposition Zrotation Xrotation Yrotation
                    JOINT LeftFinger42
                    {
                      OFFSET -0.3575 -1.7167 -0.4742
                      CHANNELS 6 Xposition Yposition Zposition Zrotation Xrotation Yrotation
                      End Site
                      {
                        OFFSET -0.4187 -1.5237 -0.3496
                      }
                    }
                  }
                }
                JOINT LeftFinger0
                {
                  OFFSET -1.42 -1.8761 1.4223
                  CHANNELS 6 Xposition Yposition Zposition Zrotation Xrotation Yrotation
                  JOINT LeftFinger01
                  {
                    OFFSET -1.1471 -3.4929 2.6334
                    CHANNELS 6 Xposition Yposition Zposition Zrotation Xrotation Yrotation
                    JOINT LeftFinger02
                    {
                      OFFSET -0.823 -2.3 1.6571
                      CHANNELS 6 Xposition Yposition Zposition Zrotation Xrotation Yrotation
                      End Site
                      {
                        OFFSET -0.5822 -1.6914 1.1582
                      }
                    }
                  }
                }
              }
            }
          }
        }
        JOINT RightCollar
        {
          OFFSET -2.2603 21.606 7.4023
          CHANNELS 6 Xposition Yposition Zposition Zrotation Xrotation Yrotation
          JOINT RightShoulder
          {
            OFFSET -13.5187 -1.1334 -5.0155
            CHANNELS 6 Xposition Yposition Zposition Zrotation Xrotation Yrotation
            JOINT RightElbow
            {
              OFFSET 0.0994 -28.0499 -0.2431
              CHANNELS 6 Xposition Yposition Zposition Zrotation Xrotation Yrotation
              JOINT RightWrist
              {
                OFFSET -0.0679 -23.3996 -0.1402
                CHANNELS 6 Xposition Yposition Zposition Zrotation Xrotation Yrotation
                JOINT RightFinger1
                {
                  OFFSET -0.7932 -9.0691 2.5189
                  CHANNELS 6 Xposition Yposition Zposition Zrotation Xrotation Yrotation
                  JOINT RightFinger11
                  {
                    OFFSET 0.8272 -3.3923 0.5977
                    CHANNELS 6 Xposition Yposition Zposition Zrotation Xrotation Yrotation
                    JOINT RightFinger12
                    {
                      OFFSET 0.565 -2.3158 0.4082
                      CHANNELS 6 Xposition Yposition Zposition Zrotation Xrotation Yrotation
                      End Site
                      {
                        OFFSET 0.4919 -1.6479 0.2673
                      }
                    }
                  }
                }
                JOINT RightFinger2
                {
                  OFFSET -0.916 -9.2044 0.2193
                  CHANNELS 6 Xposition Yposition Zposition Zrotation Xrotation Yrotation
                  JOINT RightFinger21
                  {
                    OFFSET -0.0117 -4.1944 -0.0248
                    CHANNELS 6 Xposition Yposition Zposition Zrotation Xrotation Yrotation
                    JOINT RightFinger22
                    {
                      OFFSET -0.0071 -2.3249 -0.0142
                      CHANNELS 6 Xposition Yposition Zposition Zrotation Xrotation Yrotation
                      End Site
                      {
                        OFFSET 0.1475 -2.0882 0.0028
                      }
                    }
                  }
                }
                JOINT RightFinger3
                {
                  OFFSET -0.6113 -8.7231 -2.0637
                  CHANNELS 6 Xposition Yposition Zposition Zrotation Xrotation Yrotation
                  JOINT RightFinger31
                  {
                    OFFSET 0.1927 -3.8059 -0.2383
                    CHANNELS 6 Xposition Yposition Zposition Zrotation Xrotation Yrotation
                    JOINT RightFinger32
                    {
                      OFFSET 0.1091 -2.1688 -0.1362
                      CHANNELS 6 Xposition Yposition Zposition Zrotation Xrotation Yrotation
                      End Site
                      {
                        OFFSET 0.2358 -1.9176 -0.0906
                      }
                    }
                  }
                }
                JOINT RightFinger4
                {
                  OFFSET 0.6151 -8.0947 -3.564
                  CHANNELS 6 Xposition Yposition Zposition Zrotation Xrotation Yrotation
                  JOINT RightFinger41
                  {
                    OFFSET 0.4882 -2.341 -0.6462
                    CHANNELS 6 Xposition Yposition Zposition Zrotation Xrotation Yrotation
                    JOINT RightFinger42
                    {
                      OFFSET 0.3574 -1.7166 -0.4742
                      CHANNELS 6 Xposition Yposition Zposition Zrotation Xrotation Yrotation
                      End Site
                      {
                        OFFSET 0.4187 -1.5237 -0.3496
                      }
                    }
                  }
                }
                JOINT RightFinger0
                {
                  OFFSET 1.4199 -1.8761 1.4221
                  CHANNELS 6 Xposition Yposition Zposition Zrotation Xrotation Yrotation
                  JOINT RightFinger01
                  {
                    OFFSET 1.1472 -3.4929 2.6336
                    CHANNELS 6 Xposition Yposition Zposition Zrotation Xrotation Yrotation
                    JOINT RightFinger02
                    {
                      OFFSET 0.8229 -2.3 1.6571
                      CHANNELS 6 Xposition Yposition Zposition Zrotation Xrotation Yrotation
                      End Site
                      {
                        OFFSET 0.5822 -1.6914 1.1582
                      }
                    }
                  }
                }
              }
            }
          }
        }
      }
    }
  }
  JOINT RightHip
  {
    OFFSET -9.412 3.9771 -0.7758
    CHANNELS 6 Xposition Yposition Zposition Zrotation Xrotation Yrotation
    JOINT RightKnee
    {
      OFFSET -0.7531 -40.938 0
      CHANNELS 6 Xposition Yposition Zposition Zrotation Xrotation Yrotation
      JOINT RightAnkle
      {
        OFFSET 0 -40.1986 0
        CHANNELS 6 Xposition Yposition Zposition Zrotation Xrotation Yrotation
        JOINT RightToe
        {
          OFFSET 0 -4.4182 9.239
          CHANNELS 6 Xposition Yposition Zposition Zrotation Xrotation Yrotation
          End Site
          {
            OFFSET 0 0 6.1981
          }
        }
      }
    }
  }
  JOINT LeftHip
  {
    OFFSET 9.4119 3.9773 -0.7758
    CHANNELS 6 Xposition Yposition Zposition Zrotation Xrotation Yrotation
    JOINT LeftKnee
    {
      OFFSET 0.7532 -40.9383 0
      CHANNELS 6 Xposition Yposition Zposition Zrotation Xrotation Yrotation
      JOINT LeftAnkle
      {
        OFFSET 0 -40.1986 0
        CHANNELS 6 Xposition Yposition Zposition Zrotation Xrotation Yrotation
        JOINT LeftToe
        {
          OFFSET 0 -4.4182 9.239
          CHANNELS 6 Xposition Yposition Zposition Zrotation Xrotation Yrotation
          End Site
          {
            OFFSET 0 0 6.1981
          }
        }
      }
    }
  }
}
MOTION
Frames:	4
Frame Time:	0.0333333
0.419466 -4.53104 78.2577 -90.3963 -89.7304 89.3514 0 8.7983 -4.7612 -1.79517 -5.39312 4.72499 0 8.0291 0.4195 -3.1572 -10.9142 9.34114 1.77636e-015 9.9351 -2.2114 -3.15721 -10.9143 9.34117 1.77636e-015 22.3885 -0.4656 6.054 1.87553 17.571 -0.0001 12.643 3.4389 -6.77986e-007 -35.6203 4.12483e-006 2.2603 21.606 7.4023 16.3208 -25.2783 -6.8431 13.5163 -1.1332 -5.0146 7.68387 -50.7659 39.5452 -0.0995 -28.05 -0.2431 -69.0713 -87.5964 -54.8399 0.0679 -23.3996 -0.1402 -47.8236 23.0159 26.6951 0.7932 -9.06901 2.5189 4.41391e-032 3.18055e-015 -7.95139e-016 -0.8272 -3.3923 0.5977 3.18055e-015 4.77083e-015 -0 -0.5649 -2.3158 0.4082 4.41391e-032 3.18055e-015 -7.95139e-016 0.9159 -9.20441 0.2193 4.41391e-032 3.18055e-015 -7.95139e-016 0.0117 -4.1944 -0.0248 -0.0128341 0.00232203 8.16843e-005 0.0071 -2.3249 -0.0142 3.18055e-015 4.77083e-015 7.95139e-016 0.6113 -8.7231 -2.0637 4.41391e-032 3.18055e-015 -7.95139e-016 -0.1927 -3.8059 -0.2383 -0.0160124 0.00299315 0.00085835 -0.1091 -2.1688 -0.1362 -1.27222e-014 -1.59028e-015 -1.59028e-015 -0.6151 -8.0947 -3.5641 4.41391e-032 3.18055e-015 -7.95139e-016 -0.4882 -2.341 -0.6462 -0.012633 0.00313278 0.00283894 -0.3575 -1.7167 -0.4742 6.36111e-015 -1.59028e-015 2.38542e-015 -1.42 -1.8761 1.4223 4.41391e-032 3.18055e-015 -7.95139e-016 -1.1471 -3.4929 2.6334 3.18055e-015 4.77083e-015 -0 -0.823 -2.3 1.6571 4.41391e-032 3.18055e-015 -7.95139e-016 -2.2603 21.606 7.4023 -3.3668 -20.2874 -20.1714 -13.5187 -1.1334 -5.0155 -49.8939 -35.3277 -26.5204 0.0994 -28.0499 -0.2431 -92.656 -77.6271 -109.597 -0.0679 -23.3996 -0.1402 18.6222 12.6554 7.48202 -0.7932 -9.06911 2.5189 7.07331e-006 8.07152e-006 3.32487e-006 0.8272 -3.3923 0.5977 3.81638e-006 6.2569e-006 -2.9155e-006 0.565 -2.3158 0.4082 6.89673e-034 -3.97569e-016 9.93923e-017 -0.916 -9.20441 0.2193 7.07331e-006 8.07152e-006 3.32487e-006 -0.0117 -4.1944 -0.0248 0.0129427 0.00232027 -8.5158e-005 -0.0071 -2.3249 -0.0142 4.05629e-006 -3.14275e-006 1.66403e-006 -0.6113 -8.72311 -2.0637 7.07331e-006 8.07152e-006 3.32487e-006 0.1927 -3.8059 -0.2383 0.0163215 0.00302266 -0.000878574 0.1091 -2.1688 -0.1362 4.9252e-006 1.07344e-005 2.03531e-007 0.6151 -8.09471 -3.564 7.07331e-006 8.07152e-006 3.32487e-006 0.4882 -2.341 -0.6462 0.0145305 0.00367303 -0.00325082 0.3574 -1.7166 -0.4742 -6.36111e-015 2.38542e-015 9.93923e-016 1.4199 -1.8761 1.4221 7.07331e-006 8.07152e-006 3.32487e-006 1.1472 -3.4929 2.6336 3.81638e-006 6.2569e-006 -2.9155e-006 0.8229 -2.3 1.6571 6.89673e-034 -3.97569e-016 9.93923e-017 -9.412 3.9771 -0.7758 -2.90035 0.582091 -3.81255 -0.7531 -40.938 8.88178e-016 -162.318 73.6407 159.081 -1.77636e-015 -40.1986 -1.42109e-014 -3.87962 42.5385 -6.06395 -1.77636e-015 -4.4182 9.239 -7.30767e-007 -8.25311e-008 4.28852e-007 9.4119 3.9773 -0.7758 4.82306 -1.15771 2.57863 0.7532 -40.9383 4.44089e-016 16.5551 78.5571 -16.9128 0 -40.1986 1.42109e-014 3.59677 17.9549 -11.2896 0 -4.4182 9.239 -5.96354e-016 1.59028e-015 -7.95139e-016 
0.419299 -4.53531 78.2613 -90.3963 -89.7304 89.3514 0 8.7983 -4.7612 -1.85449 -5.42125 4.82155 0 8.0291 0.4195 -3.26478 -10.9775 9.52954 0 9.9351 -2.2114 -3.26479 -10.9776 9.52958 0 22.3885 -0.4656 6.20939 1.72352 17.955 -0.0001 12.643 3.4389 2.96513e-006 -35.1835 2.74746e-006 2.2603 21.606 7.4023 16.1472 -25.0721 -6.95398 13.5163 -1.1332 -5.0146 6.60208 -51.1862 39.5181 -0.0995 -28.05 -0.2431 -72.3481 -87.3278 -58.1571 0.0679 -23.3996 -0.1402 -48.6054 22.8948 26.9885 0.7932 -9.06901 2.5189 1.10348e-031 -7.95139e-015 7.95139e-016 -0.8272 -3.3923 0.5977 -3.18055e-015 -3.18055e-015 -7.95139e-016 -0.5649 -2.3158 0.4082 -3.18055e-015 -7.95139e-015 -0 0.9159 -9.20441 0.2193 1.10348e-031 -7.95139e-015 7.95139e-016 0.0117 -4.1944 -0.0248 -0.0127829 0.00232805 8.25138e-005 0.0071 -2.3249 -0.0142 6.36111e-015 1.59028e-015 -0 0.6113 -8.72311 -2.0637 1.10348e-031 -7.95139e-015 7.95139e-016 -0.1927 -3.8059 -0.2383 -0.0159692 0.00300065 0.00085175 -0.1091 -2.1688 -0.1362 -3.18055e-015 0 -3.97569e-015 -0.6151 -8.09471 -3.5641 1.10348e-031 -7.95139e-015 7.95139e-016 -0.4882 -2.341 -0.6462 -0.0125854 0.00313779 0.00282908 -0.3575 -1.7167 -0.4742 2.20695e-032 1.59028e-015 -7.95139e-016 -1.42 -1.8761 1.4223 1.10348e-031 -7.95139e-015 7.95139e-016 -1.1471 -3.4929 2.6334 -3.18055e-015 -3.18055e-015 -7.95139e-016 -0.823 -2.3 1.6571 -3.18055e-015 -7.95139e-015 -0 -2.2603 21.606 7.4023 -2.80466 -20.0156 -20.559 -13.5187 -1.1334 -5.0155 -49.8939 -35.3277 -26.5204 0.0994 -28.0499 -0.2431 -92.7365 -77.6268 -109.676 -0.0679 -23.3996 -0.1402 18.8488 12.4244 7.8884 -0.7932 -9.06911 2.5189 2.9875e-007 1.46401e-006 -7.63021e-006 0.8272 -3.3923 0.5977 5.4605e-006 -8.50589e-007 -2.84357e-006 0.565 -2.3158 0.4082 -5.16175e-006 2.17435e-006 -4.78665e-006 -0.916 -9.20441 0.2193 2.9875e-007 1.46401e-006 -7.63021e-006 -0.0117 -4.1944 -0.0248 0.0129588 0.00232457 -8.72258e-005 -0.0071 -2.3249 -0.0142 3.55065e-006 -4.65123e-007 -1.38736e-006 -0.6113 -8.7231 -2.0637 2.9875e-007 1.46401e-006 -7.63021e-006 0.1927 -3.8059 -0.2383 0.0163424 0.00303274 -0.000881047 0.1091 -2.1688 -0.1362 3.18055e-015 -3.97569e-016 9.93923e-016 0.6151 -8.0947 -3.564 2.9875e-007 1.46401e-006 -7.63021e-006 0.4882 -2.341 -0.6462 0.0145922 0.00369066 -0.00327138 0.3574 -1.7166 -0.4742 -2.69367e-007 -1.03121e-005 1.52464e-006 1.4199 -1.8761 1.4221 2.9875e-007 1.46401e-006 -7.63021e-006 1.1472 -3.4929 2.6336 5.4605e-006 -8.50589e-007 -2.84357e-006 0.8229 -2.3 1.6571 -5.16175e-006 2.17435e-006 -4.78665e-006 -9.412 3.9771 -0.7758 -2.90119 0.592532 -3.81252 -0.7531 -40.938 0 -162.311 73.6472 159.074 0 -40.1986 0 -3.87857 42.5101 -6.05875 0 -4.4182 9.239 8.07007e-007 1.01962e-007 4.98869e-007 9.4119 3.9773 -0.7758 4.81606 -1.15222 2.56206 0.7532 -40.9383 4.44089e-016 15.5802 78.0299 -15.9975 0 -40.1986 1.42109e-014 3.44445 17.354 -11.6183 0 -4.4182 9.239 1.1979e-006 1.82368e-006 9.66378e-007 
0.419139 -4.53958 78.2649 -90.3963 -89.7304 89.3514 -1.11022e-016 8.7983 -4.7612 -1.9143 -5.44923 4.91765 -4.44089e-016 8.0291 0.4195 -3.37332 -11.0408 9.71692 0 9.9351 -2.2114 -3.37333 -11.0408 9.71696 -1.77636e-015 22.3885 -0.4656 6.36566 1.57263 18.3392 -0.0001 12.643 3.4389 4.11905e-006 -34.747 1.67195e-006 2.2603 21.606 7.4023 15.9744 -24.8657 -7.06388 13.5163 -1.1332 -5.0146 5.51458 -51.6043 39.478 -0.0995 -28.05 -0.2431 -75.018 -87.052 -60.8675 0.0679 -23.3996 -0.1402 -49.3843 22.7702 27.2792 0.7932 -9.069 2.5189 6.36111e-015 3.18055e-015 1.59028e-015 -0.8272 -3.3923 0.5977 6.36111e-015 4.77083e-015 1.59028e-015 -0.5649 -2.3158 0.4082 -1.98626e-031 4.77083e-015 2.38542e-015 0.9159 -9.2044 0.2193 6.36111e-015 3.18055e-015 1.59028e-015 0.0117 -4.1944 -0.0248 -0.0128021 0.00231181 8.61763e-005 0.0071 -2.3249 -0.0142 -9.54166e-015 4.77083e-015 -0 0.6113 -8.7231 -2.0637 6.36111e-015 3.18055e-015 1.59028e-015 -0.1927 -3.8059 -0.2383 -0.0160107 0.0029934 0.000852835 -0.1091 -2.1688 -0.1362 -0 0 1.59028e-015 -0.6151 -8.0947 -3.5641 6.36111e-015 3.18055e-015 1.59028e-015 -0.4882 -2.341 -0.6462 -0.0125338 0.00310472 0.00280955 -0.3575 -1.7167 -0.4742 3.18055e-015 1.59028e-015 -2.38542e-015 -1.42 -1.8761 1.4223 6.36111e-015 3.18055e-015 1.59028e-015 -1.1471 -3.4929 2.6334 6.36111e-015 4.77083e-015 1.59028e-015 -0.823 -2.3 1.6571 -1.98626e-031 4.77083e-015 2.38542e-015 -2.2603 21.606 7.4023 -2.24281 -19.7482 -20.9478 -13.5187 -1.1334 -5.0155 -49.8939 -35.3277 -26.5204 0.0994 -28.0499 -0.2431 -92.8167 -77.6264 -109.755 -0.0679 -23.3996 -0.1402 19.0767 12.1953 8.2949 -0.7932 -9.0691 2.5189 -9.10368e-032 1.19271e-015 4.37326e-015 0.8272 -3.3923 0.5977 1.91156e-006 -5.00663e-007 -1.45435e-006 0.565 -2.3158 0.4082 6.89673e-034 -3.97569e-016 9.93923e-017 -0.916 -9.2044 0.2193 -9.10368e-032 1.19271e-015 4.37326e-015 -0.0117 -4.1944 -0.0248 0.0129673 0.00231288 -8.33819e-005 -0.0071 -2.3249 -0.0142 -1.6395e-006 -1.07419e-005 -6.93985e-008 -0.6113 -8.7231 -2.0637 -9.10368e-032 1.19271e-015 4.37326e-015 0.1927 -3.8059 -0.2383 0.0163264 0.00302825 -0.000872619 0.1091 -2.1688 -0.1362 -3.79087e-006 2.69664e-006 -3.19784e-006 0.6151 -8.0947 -3.564 -9.10368e-032 1.19271e-015 4.37326e-015 0.4882 -2.341 -0.6462 0.0145695 0.00365997 -0.00326 0.3574 -1.7166 -0.4742 3.18055e-015 0 -4.37326e-015 1.4199 -1.8761 1.4221 -9.10368e-032 1.19271e-015 4.37326e-015 1.1472 -3.4929 2.6336 1.91156e-006 -5.00663e-007 -1.45435e-006 0.8229 -2.3 1.6571 6.89673e-034 -3.97569e-016 9.93923e-017 -9.412 3.9771 -0.7758 -2.90202 0.602928 -3.81249 -0.7531 -40.938 0 -162.303 73.6538 159.067 -1.77636e-015 -40.1986 0 -3.87752 42.4817 -6.05353 8.88178e-016 -4.4182 9.239 -1.59028e-015 9.54166e-015 7.95139e-016 9.4119 3.9773 -0.7758 4.80879 -1.14669 2.54574 0.7532 -40.9383 -1.33227e-015 14.6866 77.4998 -15.1632 0 -40.1986 0 3.28888 16.7557 -11.9463 -7.10543e-015 -4.4182 9.239 -6.37475e-007 -9.23076e-007 -4.74485e-008 
0.418985 -4.54387 78.2685 -90.3963 -89.7304 89.3514 0 8.7983 -4.7612 -1.97461 -5.47719 5.01328 4.44089e-016 8.0291 0.4195 -3.48281 -11.1041 9.90332 0 9.9351 -2.2114 -3.48282 -11.1041 9.90335 0 22.3885 -0.4656 6.52283 1.42294 18.7235 -0.0001 12.643 3.4389 -5.76702e-006 -34.3107 -5.2435e-006 2.2603 21.606 7.4023 15.8024 -24.6591 -7.17294 13.5163 -1.1332 -5.0146 4.42176 -52.0199 39.425 -0.0995 -28.05 -0.2431 -77.2203 -86.771 -63.1102 0.0679 -23.3996 -0.1402 -50.1605 22.6423 27.5673 0.7932 -9.06901 2.5189 -3.18055e-015 -3.18055e-015 -2.38542e-015 -0.8272 -3.3923 0.5977 -6.36111e-015 -3.18055e-015 7.95139e-016 -0.5649 -2.3158 0.4082 6.36111e-015 -4.77083e-015 -7.95139e-016 0.9159 -9.20441 0.2193 -3.18055e-015 -3.18055e-015 -2.38542e-015 0.0117 -4.1944 -0.0248 -0.0127886 0.00232393 8.66164e-005 0.0071 -2.3249 -0.0142 -6.36111e-015 0 7.95139e-016 0.6113 -8.72311 -2.0637 -3.18055e-015 -3.18055e-015 -2.38542e-015 -0.1927 -3.8059 -0.2383 -0.016067 0.00299691 0.0008667 -0.1091 -2.1688 -0.1362 3.18055e-015 -1.11319e-014 -1.59028e-015 -0.6151 -8.09471 -3.5641 -3.18055e-015 -3.18055e-015 -2.38542e-015 -0.4882 -2.341 -0.6462 -0.0125891 0.00311261 0.00283069 -0.3575 -1.7167 -0.4742 -1.54487e-031 -1.11319e-014 -7.95139e-016 -1.42 -1.8761 1.4223 -3.18055e-015 -3.18055e-015 -2.38542e-015 -1.1471 -3.4929 2.6334 -6.36111e-015 -3.18055e-015 7.95139e-016 -0.823 -2.3 1.6571 6.36111e-015 -4.77083e-015 -7.95139e-016 -2.2603 21.606 7.4023 -1.68132 -19.4848 -21.3379 -13.5187 -1.1334 -5.0155 -49.8939 -35.3277 -26.5204 0.0994 -28.0499 -0.2431 -92.8973 -77.626 -109.834 -0.0679 -23.3996 -0.1402 19.3059 11.9679 8.70155 -0.7932 -9.06911 2.5189 6.36111e-015 3.97569e-016 -5.76476e-015 0.8272 -3.3923 0.5977 -1.65521e-032 -3.97569e-016 -2.38542e-015 0.565 -2.3158 0.4082 3.55166e-006 -4.80337e-007 -1.38257e-006 -0.916 -9.20441 0.2193 6.36111e-015 3.97569e-016 -5.76476e-015 -0.0117 -4.1944 -0.0248 0.0129532 0.00232203 -9.42596e-005 -0.0071 -2.3249 -0.0142 2.46365e-006 -1.34691e-006 -4.49798e-006 -0.6113 -8.72311 -2.0637 6.36111e-015 3.97569e-016 -5.76476e-015 0.1927 -3.8059 -0.2383 0.0163303 0.00301591 -0.000865012 0.1091 -2.1688 -0.1362 -7.77433e-007 1.14621e-005 -1.07455e-005 0.6151 -8.09471 -3.564 6.36111e-015 3.97569e-016 -5.76476e-015 0.4882 -2.341 -0.6462 0.0146018 0.00367923 -0.00326023 0.3574 -1.7166 -0.4742 3.82688e-006 -7.99569e-007 -2.90506e-006 1.4199 -1.8761 1.4221 6.36111e-015 3.97569e-016 -5.76476e-015 1.1472 -3.4929 2.6336 -1.65521e-032 -3.97569e-016 -2.38542e-015 0.8229 -2.3 1.6571 3.55166e-006 -4.80337e-007 -1.38257e-006 -9.412 3.9771 -0.7758 -2.90276 0.610742 -3.81242 -0.7531 -40.938 0 -162.298 73.6579 159.063 1.77636e-015 -40.1986 0 -3.87647 42.4534 -6.04833 2.66453e-015 -4.4182 9.239 -3.65098e-007 1.83627e-009 2.14914e-007 9.4119 3.9773 -0.7758 4.80123 -1.14228 2.52964 0.7532 -40.9383 -8.88178e-016 13.8656 76.9684 -14.4016 0 -40.1986 0 3.13018 16.1598 -12.2738 -7.10543e-015 -4.4182 9.239 4.25507e-007 2.62846e-007 2.31686e-008 
